<svg width="1177" height="140" viewBox="0 0 1177 140" fill="none" xmlns="http://www.w3.org/2000/svg">
<rect width="1177" height="140" fill="#030303"/>
<path d="M251.156 48.3438V75.7812C251.156 86.5521 247.365 91.9375 239.781 91.9375C236.427 91.9375 233.583 90.9896 231.25 89.0938C228.917 87.1771 227.75 84.8542 227.75 82.125C227.75 80.5 228.083 78.4479 228.75 75.9688L233.281 74.75C232.573 77.7083 232.219 79.8438 232.219 81.1562C232.219 85.7812 233.604 88.0938 236.375 88.0938C237.979 88.0938 238.781 85.9271 238.781 81.5938V48.3438H251.156ZM271.938 58.6875C282.354 58.6875 287.562 64.1875 287.562 75.1875C287.562 86.1875 282.354 91.6875 271.938 91.6875C261.5 91.6875 256.281 86.1875 256.281 75.1875C256.281 64.1875 261.5 58.6875 271.938 58.6875ZM271.906 61.4688C269.385 61.4688 268.125 66.0417 268.125 75.1875C268.125 84.3333 269.385 88.9062 271.906 88.9062C274.448 88.9062 275.719 84.3333 275.719 75.1875C275.719 66.0417 274.448 61.4688 271.906 61.4688ZM315.031 70.9375H307.219C307.49 69.7083 307.729 68.8021 307.938 68.2188C308.229 67.3646 308.375 66.5938 308.375 65.9062C308.375 64.5729 307.896 63.9062 306.938 63.9062C306.208 63.9062 305.51 64.7917 304.844 66.5625C304.177 68.3125 303.844 70.1667 303.844 72.125V91H292.438V59.5L294.656 59.5312C297.281 59.5312 300.344 59.25 303.844 58.6875V63.875C305.698 60.4167 307.969 58.6875 310.656 58.6875C314.323 58.6875 316.156 60.7083 316.156 64.75C316.156 65.8125 315.979 67.0312 315.625 68.4062C315.5 68.9688 315.302 69.8125 315.031 70.9375ZM340.281 59.8125C345.594 62.0833 348.25 65.3854 348.25 69.7188C348.25 72.5729 346.917 75.0104 344.25 77.0312C341.583 79.0521 338.365 80.0625 334.594 80.0625C333.135 80.0625 331.167 79.875 328.688 79.5C327.25 80.3333 326.531 81.1667 326.531 82C326.531 83.1458 327.417 83.7188 329.188 83.7188C329.646 83.7188 330.573 83.6771 331.969 83.5938C335.49 83.3646 338.052 83.25 339.656 83.25C347.24 83.25 351.031 86.125 351.031 91.875C351.031 98.8333 344.75 102.312 332.188 102.312C322.833 102.312 318.156 100.344 318.156 96.4062C318.156 94.1354 320.052 92.5938 323.844 91.7812C319.802 90.7188 317.781 88.9583 317.781 86.5C317.781 83.4375 320.188 80.7396 325 78.4062C320.771 76.6979 318.656 73.7917 318.656 69.6875C318.656 66.5625 319.938 63.9479 322.5 61.8438C325.062 59.7188 328.24 58.6562 332.031 58.6562C333.323 58.6562 335.021 58.7917 337.125 59.0625C337.021 58.3333 336.969 57.7604 336.969 57.3438C336.969 53.2188 339.125 51.1562 343.438 51.1562C346.875 51.1562 348.594 52.6042 348.594 55.5C348.594 57.7083 347.562 58.8125 345.5 58.8125C344.812 58.8125 344 58.5833 343.062 58.125C342.479 57.8333 342.042 57.6771 341.75 57.6562C340.771 57.5938 340.281 58.3125 340.281 59.8125ZM333.25 61.75C331.125 61.75 330.062 64.3958 330.062 69.6875C330.062 74.5417 331.167 76.9688 333.375 76.9688C335.396 76.9688 336.406 74.8125 336.406 70.5C336.406 64.6667 335.354 61.75 333.25 61.75ZM332.938 93.0625C327.625 93.0625 324.969 94.0938 324.969 96.1562C324.969 98.1979 327.542 99.2188 332.688 99.2188C338.667 99.2188 341.656 98.0729 341.656 95.7812C341.656 93.9688 338.75 93.0625 332.938 93.0625ZM376.625 79.4688L381.219 80.8125C380.74 88.0833 376.448 91.7188 368.344 91.7188C357.844 91.7188 352.594 86.4792 352.594 76C352.594 70.9167 353.99 66.75 356.781 63.5C359.573 60.25 363.146 58.625 367.5 58.625C376.604 58.625 381.156 64.5 381.156 76.25H364.531C364.531 84.5 366.625 88.625 370.812 88.625C374.729 88.625 376.688 86.2917 376.688 81.625C376.688 81 376.667 80.2812 376.625 79.4688ZM364.5 72.7188H371.312C371.312 65.3854 370.208 61.7188 368 61.7188C366 61.7188 364.875 64.4375 364.625 69.875L364.5 72.7188ZM418.156 48.3438V86.7188H435.688V91H405.781V48.3438H418.156ZM469.594 89.875C466.802 90.9583 464.083 91.5 461.438 91.5C457.521 91.5 455.104 90.2812 454.188 87.8438C452.292 90.3854 449.562 91.6562 446 91.6562C439.354 91.6562 436.031 88.5729 436.031 82.4062C436.031 77.7188 439.073 74.4271 445.156 72.5312C450.74 70.7812 453.531 68.6771 453.531 66.2188C453.531 62.9896 451.927 61.375 448.719 61.375C445.01 61.375 443.156 62.9375 443.156 66.0625C443.156 67.0417 443.448 68.3333 444.031 69.9375L438.375 68.8438C438.229 67.8646 438.156 66.9479 438.156 66.0938C438.156 61.0938 442.719 58.5938 451.844 58.5938C460.51 58.5938 464.844 60.9271 464.844 65.5938V84.7188C464.844 86.6771 465.479 87.6562 466.75 87.6562C467.146 87.6562 467.729 87.4375 468.5 87L469.594 89.875ZM453.438 72.0625C452.729 72.875 451.906 73.5521 450.969 74.0938C448.615 75.4688 447.438 77.7812 447.438 81.0312C447.438 85.1979 448.25 87.2812 449.875 87.2812C452.25 87.2812 453.438 85.2188 453.438 81.0938V72.0625ZM501.469 91H490.062V67.875C490.062 65.5208 489.406 64.3438 488.094 64.3438C486.76 64.3438 485.604 65.2812 484.625 67.1562C483.646 69.0104 483.156 71.2083 483.156 73.75V91H471.75V59.4375C475.667 59.4375 479.469 59.1771 483.156 58.6562V64.5625C485.99 60.6458 489.448 58.6875 493.531 58.6875C498.823 58.6875 501.469 61.375 501.469 66.75V91ZM536.125 47.6875V91H524.719V88.2812C522.802 90.5729 520.24 91.7188 517.031 91.7188C509.948 91.7188 506.406 86.2812 506.406 75.4062C506.406 64.2188 510.156 58.625 517.656 58.625C520.615 58.625 522.969 59.9271 524.719 62.5312V48.3438C528.156 48.3438 531.958 48.125 536.125 47.6875ZM521.344 63.2188C519.427 63.2188 518.469 64.9792 518.469 68.5L518.25 75.1875L518.375 81.2812C518.375 85.1771 519.458 87.125 521.625 87.125C523.729 87.125 524.781 85.2083 524.781 81.375L524.938 73.6875L524.688 68.4375C524.354 64.9583 523.24 63.2188 521.344 63.2188ZM574.156 89.875C571.365 90.9583 568.646 91.5 566 91.5C562.083 91.5 559.667 90.2812 558.75 87.8438C556.854 90.3854 554.125 91.6562 550.562 91.6562C543.917 91.6562 540.594 88.5729 540.594 82.4062C540.594 77.7188 543.635 74.4271 549.719 72.5312C555.302 70.7812 558.094 68.6771 558.094 66.2188C558.094 62.9896 556.49 61.375 553.281 61.375C549.573 61.375 547.719 62.9375 547.719 66.0625C547.719 67.0417 548.01 68.3333 548.594 69.9375L542.938 68.8438C542.792 67.8646 542.719 66.9479 542.719 66.0938C542.719 61.0938 547.281 58.5938 556.406 58.5938C565.073 58.5938 569.406 60.9271 569.406 65.5938V84.7188C569.406 86.6771 570.042 87.6562 571.312 87.6562C571.708 87.6562 572.292 87.4375 573.062 87L574.156 89.875ZM558 72.0625C557.292 72.875 556.469 73.5521 555.531 74.0938C553.177 75.4688 552 77.7812 552 81.0312C552 85.1979 552.812 87.2812 554.438 87.2812C556.812 87.2812 558 85.2188 558 81.0938V72.0625ZM595.969 91V48.3438H613.656C626.219 48.3438 632.5 55.4688 632.5 69.7188C632.5 83.9062 625.99 91 612.969 91H595.969ZM608.344 87.4688H611.594C614.573 87.4688 616.635 86.1875 617.781 83.625C618.927 81.0417 619.5 76.3854 619.5 69.6562C619.5 62.9271 618.927 58.2812 617.781 55.7188C616.656 53.1562 614.594 51.875 611.594 51.875H608.344V87.4688ZM660 79.4688L664.594 80.8125C664.115 88.0833 659.823 91.7188 651.719 91.7188C641.219 91.7188 635.969 86.4792 635.969 76C635.969 70.9167 637.365 66.75 640.156 63.5C642.948 60.25 646.521 58.625 650.875 58.625C659.979 58.625 664.531 64.5 664.531 76.25H647.906C647.906 84.5 650 88.625 654.188 88.625C658.104 88.625 660.062 86.2917 660.062 81.625C660.062 81 660.042 80.2812 660 79.4688ZM647.875 72.7188H654.688C654.688 65.3854 653.583 61.7188 651.375 61.7188C649.375 61.7188 648.25 64.4375 648 69.875L647.875 72.7188ZM680.75 47.7188V91H669.344V48.3438C672.49 48.3438 676.292 48.1354 680.75 47.7188ZM692.906 47.2812C696.448 47.2812 698.219 48.6562 698.219 51.4062C698.219 54.1562 696.448 55.5312 692.906 55.5312C689.365 55.5312 687.594 54.1562 687.594 51.4062C687.594 48.6562 689.365 47.2812 692.906 47.2812ZM687.125 91V59.5312C690.688 59.5312 694.49 59.25 698.531 58.6875V91H687.125ZM727.375 76.9375L732.188 78.4062L732.219 79.6875C732.219 87.6875 727.844 91.6875 719.094 91.6875C708.719 91.6875 703.531 86.4271 703.531 75.9062C703.531 70.6354 705.042 66.4375 708.062 63.3125C711.083 60.1667 715.135 58.5938 720.219 58.5938C727.531 58.5938 731.188 61.9062 731.188 68.5312L725.844 71.125L725.906 68.125C725.906 63.625 724.396 61.375 721.375 61.375C717.375 61.375 715.375 65.7917 715.375 74.625C715.375 80.0833 715.802 83.8333 716.656 85.875C717.51 87.8958 719.094 88.9062 721.406 88.9062C725.635 88.9062 727.75 86.1667 727.75 80.6875C727.75 79.9167 727.625 78.6667 727.375 76.9375ZM768.031 89.875C765.24 90.9583 762.521 91.5 759.875 91.5C755.958 91.5 753.542 90.2812 752.625 87.8438C750.729 90.3854 748 91.6562 744.438 91.6562C737.792 91.6562 734.469 88.5729 734.469 82.4062C734.469 77.7188 737.51 74.4271 743.594 72.5312C749.177 70.7812 751.969 68.6771 751.969 66.2188C751.969 62.9896 750.365 61.375 747.156 61.375C743.448 61.375 741.594 62.9375 741.594 66.0625C741.594 67.0417 741.885 68.3333 742.469 69.9375L736.812 68.8438C736.667 67.8646 736.594 66.9479 736.594 66.0938C736.594 61.0938 741.156 58.5938 750.281 58.5938C758.948 58.5938 763.281 60.9271 763.281 65.5938V84.7188C763.281 86.6771 763.917 87.6562 765.188 87.6562C765.583 87.6562 766.167 87.4375 766.938 87L768.031 89.875ZM751.875 72.0625C751.167 72.875 750.344 73.5521 749.406 74.0938C747.052 75.4688 745.875 77.7812 745.875 81.0312C745.875 85.1979 746.688 87.2812 748.312 87.2812C750.688 87.2812 751.875 85.2188 751.875 81.0938V72.0625ZM787.156 59.5938V63.125H782.094V85.4062C782.094 86.8021 782.542 87.5 783.438 87.5C784.083 87.5 784.469 87.0312 784.594 86.0938L787.844 86.4062C786.948 89.6979 784.094 91.3438 779.281 91.3438C773.552 91.3438 770.688 88.9062 770.688 84.0312V63.125H766.875V59.5938H770.688V54.0312C774.625 52.9479 778.427 51.3854 782.094 49.3438V59.5938H787.156ZM813.375 79.4688L817.969 80.8125C817.49 88.0833 813.198 91.7188 805.094 91.7188C794.594 91.7188 789.344 86.4792 789.344 76C789.344 70.9167 790.74 66.75 793.531 63.5C796.323 60.25 799.896 58.625 804.25 58.625C813.354 58.625 817.906 64.5 817.906 76.25H801.281C801.281 84.5 803.375 88.625 807.562 88.625C811.479 88.625 813.438 86.2917 813.438 81.625C813.438 81 813.417 80.2812 813.375 79.4688ZM801.25 72.7188H808.062C808.062 65.3854 806.958 61.7188 804.75 61.7188C802.75 61.7188 801.625 64.4375 801.375 69.875L801.25 72.7188ZM847.406 67.5938L841.875 68.5625C841.875 63.8542 839.688 61.5 835.312 61.5C832.625 61.5 831.281 62.6042 831.281 64.8125C831.281 66.4375 833.594 68.1875 838.219 70.0625C845.302 72.9583 848.844 76.6354 848.844 81.0938C848.844 88.1979 844.333 91.75 835.312 91.75C825.771 91.75 821 88.1979 821 81.0938L826.875 79.9062C826.792 80.5938 826.75 81.2396 826.75 81.8438C826.75 83.6771 827.51 85.2708 829.031 86.625C830.573 87.9792 832.385 88.6562 834.469 88.6562C837.219 88.6562 838.594 87.4896 838.594 85.1562C838.594 83.5938 836.375 81.8646 831.938 79.9688C825.25 77.0938 821.906 73.4062 821.906 68.9062C821.906 65.9271 823.188 63.4896 825.75 61.5938C828.312 59.6771 831.604 58.7188 835.625 58.7188C842.771 58.7188 846.698 61.6771 847.406 67.5938ZM877.969 67.5938L872.438 68.5625C872.438 63.8542 870.25 61.5 865.875 61.5C863.188 61.5 861.844 62.6042 861.844 64.8125C861.844 66.4375 864.156 68.1875 868.781 70.0625C875.865 72.9583 879.406 76.6354 879.406 81.0938C879.406 88.1979 874.896 91.75 865.875 91.75C856.333 91.75 851.562 88.1979 851.562 81.0938L857.438 79.9062C857.354 80.5938 857.312 81.2396 857.312 81.8438C857.312 83.6771 858.073 85.2708 859.594 86.625C861.135 87.9792 862.948 88.6562 865.031 88.6562C867.781 88.6562 869.156 87.4896 869.156 85.1562C869.156 83.5938 866.938 81.8646 862.5 79.9688C855.812 77.0938 852.469 73.4062 852.469 68.9062C852.469 65.9271 853.75 63.4896 856.312 61.5938C858.875 59.6771 862.167 58.7188 866.188 58.7188C873.333 58.7188 877.26 61.6771 877.969 67.5938ZM906.5 79.4688L911.094 80.8125C910.615 88.0833 906.323 91.7188 898.219 91.7188C887.719 91.7188 882.469 86.4792 882.469 76C882.469 70.9167 883.865 66.75 886.656 63.5C889.448 60.25 893.021 58.625 897.375 58.625C906.479 58.625 911.031 64.5 911.031 76.25H894.406C894.406 84.5 896.5 88.625 900.688 88.625C904.604 88.625 906.562 86.2917 906.562 81.625C906.562 81 906.542 80.2812 906.5 79.4688ZM894.375 72.7188H901.188C901.188 65.3854 900.083 61.7188 897.875 61.7188C895.875 61.7188 894.75 64.4375 894.5 69.875L894.375 72.7188ZM945.719 91H934.312V67.875C934.312 65.5208 933.656 64.3438 932.344 64.3438C931.01 64.3438 929.854 65.2812 928.875 67.1562C927.896 69.0104 927.406 71.2083 927.406 73.75V91H916V59.4375C919.917 59.4375 923.719 59.1771 927.406 58.6562V64.5625C930.24 60.6458 933.698 58.6875 937.781 58.6875C943.073 58.6875 945.719 61.375 945.719 66.75V91Z" fill="white"/>
</svg>
