<svg width="66" height="53" viewBox="0 0 66 53" fill="none" xmlns="http://www.w3.org/2000/svg">
<path d="M33 33.5667C37.8601 33.5667 41.8 30.4028 41.8 26.5C41.8 22.5972 37.8601 19.4333 33 19.4333C28.1398 19.4333 24.2 22.5972 24.2 26.5C24.2 30.4028 28.1398 33.5667 33 33.5667Z" fill="black"/>
<path d="M24.75 4.41663L19.7175 8.83329H11C7.975 8.83329 5.5 10.8208 5.5 13.25V39.75C5.5 42.1791 7.975 44.1666 11 44.1666H55C58.025 44.1666 60.5 42.1791 60.5 39.75V13.25C60.5 10.8208 58.025 8.83329 55 8.83329H46.2825L41.25 4.41663H24.75ZM33 37.5416C25.41 37.5416 19.25 32.595 19.25 26.5C19.25 20.405 25.41 15.4583 33 15.4583C40.59 15.4583 46.75 20.405 46.75 26.5C46.75 32.595 40.59 37.5416 33 37.5416Z" fill="black"/>
</svg>
