<svg width="71" height="50" viewBox="0 0 71 50" fill="none" xmlns="http://www.w3.org/2000/svg">
<path d="M50.9129 18.75L37.9555 5.08337C37.3934 4.50004 36.4467 4.20837 35.5 4.20837C34.5534 4.20837 33.6067 4.50004 33.0446 5.10421L20.0871 18.75H5.91671C4.28962 18.75 2.95837 19.6875 2.95837 20.8334C2.95837 21.0209 2.98796 21.2084 3.07671 21.3959L10.5909 40.7084C11.2713 42.4584 13.5492 43.75 16.2709 43.75H54.7292C57.4509 43.75 59.7288 42.4584 60.4388 40.7084L67.9529 21.3959L68.0417 20.8334C68.0417 19.6875 66.7104 18.75 65.0834 18.75H50.9129ZM26.625 18.75L35.5 9.58337L44.375 18.75H26.625ZM35.5 35.4167C32.2459 35.4167 29.5834 33.5417 29.5834 31.25C29.5834 28.9584 32.2459 27.0834 35.5 27.0834C38.7542 27.0834 41.4167 28.9584 41.4167 31.25C41.4167 33.5417 38.7542 35.4167 35.5 35.4167Z" fill="black"/>
</svg>
