<svg width="491" height="347" viewBox="0 0 491 347" fill="none" xmlns="http://www.w3.org/2000/svg">
<rect width="491" height="347" rx="44" fill="#C4C4C4"/>
<path d="M145.285 160.395C143.355 159.84 141.949 159.16 141.066 158.355C140.191 157.543 139.754 156.543 139.754 155.355C139.754 154.012 140.289 152.902 141.359 152.027C142.438 151.145 143.836 150.703 145.555 150.703C146.727 150.703 147.77 150.93 148.684 151.383C149.605 151.836 150.316 152.461 150.816 153.258C151.324 154.055 151.578 154.926 151.578 155.871H149.316C149.316 154.84 148.988 154.031 148.332 153.445C147.676 152.852 146.75 152.555 145.555 152.555C144.445 152.555 143.578 152.801 142.953 153.293C142.336 153.777 142.027 154.453 142.027 155.32C142.027 156.016 142.32 156.605 142.906 157.09C143.5 157.566 144.504 158.004 145.918 158.402C147.34 158.801 148.449 159.242 149.246 159.727C150.051 160.203 150.645 160.762 151.027 161.402C151.418 162.043 151.613 162.797 151.613 163.664C151.613 165.047 151.074 166.156 149.996 166.992C148.918 167.82 147.477 168.234 145.672 168.234C144.5 168.234 143.406 168.012 142.391 167.566C141.375 167.113 140.59 166.496 140.035 165.715C139.488 164.934 139.215 164.047 139.215 163.055H141.477C141.477 164.086 141.855 164.902 142.613 165.504C143.379 166.098 144.398 166.395 145.672 166.395C146.859 166.395 147.77 166.152 148.402 165.668C149.035 165.184 149.352 164.523 149.352 163.688C149.352 162.852 149.059 162.207 148.473 161.754C147.887 161.293 146.824 160.84 145.285 160.395ZM167.633 160.02C167.633 161.691 167.352 163.152 166.789 164.402C166.227 165.645 165.43 166.594 164.398 167.25C163.367 167.906 162.164 168.234 160.789 168.234C159.445 168.234 158.254 167.906 157.215 167.25C156.176 166.586 155.367 165.645 154.789 164.426C154.219 163.199 153.926 161.781 153.91 160.172V158.941C153.91 157.301 154.195 155.852 154.766 154.594C155.336 153.336 156.141 152.375 157.18 151.711C158.227 151.039 159.422 150.703 160.766 150.703C162.133 150.703 163.336 151.035 164.375 151.699C165.422 152.355 166.227 153.312 166.789 154.57C167.352 155.82 167.633 157.277 167.633 158.941V160.02ZM165.395 158.918C165.395 156.895 164.988 155.344 164.176 154.266C163.363 153.18 162.227 152.637 160.766 152.637C159.344 152.637 158.223 153.18 157.402 154.266C156.59 155.344 156.172 156.844 156.148 158.766V160.02C156.148 161.98 156.559 163.523 157.379 164.648C158.207 165.766 159.344 166.324 160.789 166.324C162.242 166.324 163.367 165.797 164.164 164.742C164.961 163.68 165.371 162.16 165.395 160.184V158.918ZM177.266 161.098H173.258V168H170.996V150.938H176.645C178.566 150.938 180.043 151.375 181.074 152.25C182.113 153.125 182.633 154.398 182.633 156.07C182.633 157.133 182.344 158.059 181.766 158.848C181.195 159.637 180.398 160.227 179.375 160.617L183.383 167.859V168H180.969L177.266 161.098ZM173.258 159.258H176.715C177.832 159.258 178.719 158.969 179.375 158.391C180.039 157.812 180.371 157.039 180.371 156.07C180.371 155.016 180.055 154.207 179.422 153.645C178.797 153.082 177.891 152.797 176.703 152.789H173.258V159.258ZM192.055 161.098H188.047V168H185.785V150.938H191.434C193.355 150.938 194.832 151.375 195.863 152.25C196.902 153.125 197.422 154.398 197.422 156.07C197.422 157.133 197.133 158.059 196.555 158.848C195.984 159.637 195.188 160.227 194.164 160.617L198.172 167.859V168H195.758L192.055 161.098ZM188.047 159.258H191.504C192.621 159.258 193.508 158.969 194.164 158.391C194.828 157.812 195.16 157.039 195.16 156.07C195.16 155.016 194.844 154.207 194.211 153.645C193.586 153.082 192.68 152.797 191.492 152.789H188.047V159.258ZM210.23 160.113H202.836V166.16H211.426V168H200.586V150.938H211.309V152.789H202.836V158.273H210.23V160.113ZM227.34 168H225.078L216.488 154.852V168H214.227V150.938H216.488L225.102 164.145V150.938H227.34V168ZM242.773 152.789H237.289V168H235.051V152.789H229.578V150.938H242.773V152.789ZM247.719 168H245.469V150.938H247.719V168ZM264.957 168H262.695L254.105 154.852V168H251.844V150.938H254.105L262.719 164.145V150.938H264.957V168ZM282.078 160.02C282.078 161.691 281.797 163.152 281.234 164.402C280.672 165.645 279.875 166.594 278.844 167.25C277.812 167.906 276.609 168.234 275.234 168.234C273.891 168.234 272.699 167.906 271.66 167.25C270.621 166.586 269.812 165.645 269.234 164.426C268.664 163.199 268.371 161.781 268.355 160.172V158.941C268.355 157.301 268.641 155.852 269.211 154.594C269.781 153.336 270.586 152.375 271.625 151.711C272.672 151.039 273.867 150.703 275.211 150.703C276.578 150.703 277.781 151.035 278.82 151.699C279.867 152.355 280.672 153.312 281.234 154.57C281.797 155.82 282.078 157.277 282.078 158.941V160.02ZM279.84 158.918C279.84 156.895 279.434 155.344 278.621 154.266C277.809 153.18 276.672 152.637 275.211 152.637C273.789 152.637 272.668 153.18 271.848 154.266C271.035 155.344 270.617 156.844 270.594 158.766V160.02C270.594 161.98 271.004 163.523 271.824 164.648C272.652 165.766 273.789 166.324 275.234 166.324C276.688 166.324 277.812 165.797 278.609 164.742C279.406 163.68 279.816 162.16 279.84 160.184V158.918ZM290.48 160.395C288.551 159.84 287.145 159.16 286.262 158.355C285.387 157.543 284.949 156.543 284.949 155.355C284.949 154.012 285.484 152.902 286.555 152.027C287.633 151.145 289.031 150.703 290.75 150.703C291.922 150.703 292.965 150.93 293.879 151.383C294.801 151.836 295.512 152.461 296.012 153.258C296.52 154.055 296.773 154.926 296.773 155.871H294.512C294.512 154.84 294.184 154.031 293.527 153.445C292.871 152.852 291.945 152.555 290.75 152.555C289.641 152.555 288.773 152.801 288.148 153.293C287.531 153.777 287.223 154.453 287.223 155.32C287.223 156.016 287.516 156.605 288.102 157.09C288.695 157.566 289.699 158.004 291.113 158.402C292.535 158.801 293.645 159.242 294.441 159.727C295.246 160.203 295.84 160.762 296.223 161.402C296.613 162.043 296.809 162.797 296.809 163.664C296.809 165.047 296.27 166.156 295.191 166.992C294.113 167.82 292.672 168.234 290.867 168.234C289.695 168.234 288.602 168.012 287.586 167.566C286.57 167.113 285.785 166.496 285.23 165.715C284.684 164.934 284.41 164.047 284.41 163.055H286.672C286.672 164.086 287.051 164.902 287.809 165.504C288.574 166.098 289.594 166.395 290.867 166.395C292.055 166.395 292.965 166.152 293.598 165.668C294.23 165.184 294.547 164.523 294.547 163.688C294.547 162.852 294.254 162.207 293.668 161.754C293.082 161.293 292.02 160.84 290.48 160.395ZM177.582 190.586C177.371 192.391 176.703 193.785 175.578 194.77C174.461 195.746 172.973 196.234 171.113 196.234C169.098 196.234 167.48 195.512 166.262 194.066C165.051 192.621 164.445 190.688 164.445 188.266V186.625C164.445 185.039 164.727 183.645 165.289 182.441C165.859 181.238 166.664 180.316 167.703 179.676C168.742 179.027 169.945 178.703 171.312 178.703C173.125 178.703 174.578 179.211 175.672 180.227C176.766 181.234 177.402 182.633 177.582 184.422H175.32C175.125 183.062 174.699 182.078 174.043 181.469C173.395 180.859 172.484 180.555 171.312 180.555C169.875 180.555 168.746 181.086 167.926 182.148C167.113 183.211 166.707 184.723 166.707 186.684V188.336C166.707 190.188 167.094 191.66 167.867 192.754C168.641 193.848 169.723 194.395 171.113 194.395C172.363 194.395 173.32 194.113 173.984 193.551C174.656 192.98 175.102 191.992 175.32 190.586H177.582ZM193.789 188.02C193.789 189.691 193.508 191.152 192.945 192.402C192.383 193.645 191.586 194.594 190.555 195.25C189.523 195.906 188.32 196.234 186.945 196.234C185.602 196.234 184.41 195.906 183.371 195.25C182.332 194.586 181.523 193.645 180.945 192.426C180.375 191.199 180.082 189.781 180.066 188.172V186.941C180.066 185.301 180.352 183.852 180.922 182.594C181.492 181.336 182.297 180.375 183.336 179.711C184.383 179.039 185.578 178.703 186.922 178.703C188.289 178.703 189.492 179.035 190.531 179.699C191.578 180.355 192.383 181.312 192.945 182.57C193.508 183.82 193.789 185.277 193.789 186.941V188.02ZM191.551 186.918C191.551 184.895 191.145 183.344 190.332 182.266C189.52 181.18 188.383 180.637 186.922 180.637C185.5 180.637 184.379 181.18 183.559 182.266C182.746 183.344 182.328 184.844 182.305 186.766V188.02C182.305 189.98 182.715 191.523 183.535 192.648C184.363 193.766 185.5 194.324 186.945 194.324C188.398 194.324 189.523 193.797 190.32 192.742C191.117 191.68 191.527 190.16 191.551 188.184V186.918ZM210.277 196H208.016L199.426 182.852V196H197.164V178.938H199.426L208.039 192.145V178.938H210.277V196ZM229.648 191.547H222.5L220.895 196H218.574L225.09 178.938H227.059L233.586 196H231.277L229.648 191.547ZM223.18 189.695H228.98L226.074 181.715L223.18 189.695ZM238.145 194.16H246.23V196H235.883V178.938H238.145V194.16ZM260.621 193.762C260.043 194.59 259.234 195.211 258.195 195.625C257.164 196.031 255.961 196.234 254.586 196.234C253.195 196.234 251.961 195.91 250.883 195.262C249.805 194.605 248.969 193.676 248.375 192.473C247.789 191.27 247.488 189.875 247.473 188.289V186.801C247.473 184.23 248.07 182.238 249.266 180.824C250.469 179.41 252.156 178.703 254.328 178.703C256.109 178.703 257.543 179.16 258.629 180.074C259.715 180.98 260.379 182.27 260.621 183.941H258.371C257.949 181.684 256.605 180.555 254.34 180.555C252.832 180.555 251.688 181.086 250.906 182.148C250.133 183.203 249.742 184.734 249.734 186.742V188.137C249.734 190.051 250.172 191.574 251.047 192.707C251.922 193.832 253.105 194.395 254.598 194.395C255.441 194.395 256.18 194.301 256.812 194.113C257.445 193.926 257.969 193.609 258.383 193.164V189.332H254.434V187.504H260.621V193.762ZM277.508 188.02C277.508 189.691 277.227 191.152 276.664 192.402C276.102 193.645 275.305 194.594 274.273 195.25C273.242 195.906 272.039 196.234 270.664 196.234C269.32 196.234 268.129 195.906 267.09 195.25C266.051 194.586 265.242 193.645 264.664 192.426C264.094 191.199 263.801 189.781 263.785 188.172V186.941C263.785 185.301 264.07 183.852 264.641 182.594C265.211 181.336 266.016 180.375 267.055 179.711C268.102 179.039 269.297 178.703 270.641 178.703C272.008 178.703 273.211 179.035 274.25 179.699C275.297 180.355 276.102 181.312 276.664 182.57C277.227 183.82 277.508 185.277 277.508 186.941V188.02ZM275.27 186.918C275.27 184.895 274.863 183.344 274.051 182.266C273.238 181.18 272.102 180.637 270.641 180.637C269.219 180.637 268.098 181.18 267.277 182.266C266.465 183.344 266.047 184.844 266.023 186.766V188.02C266.023 189.98 266.434 191.523 267.254 192.648C268.082 193.766 269.219 194.324 270.664 194.324C272.117 194.324 273.242 193.797 274.039 192.742C274.836 191.68 275.246 190.16 275.27 188.184V186.918Z" fill="black"/>
<path d="M388.208 166.625H392.792V159.75H399.667V155.167H392.792V148.292H388.208V155.167H381.333V159.75H388.208V166.625ZM379.042 187.25C376.521 187.25 374.481 189.313 374.481 191.833C374.481 194.354 376.521 196.417 379.042 196.417C381.562 196.417 383.625 194.354 383.625 191.833C383.625 189.313 381.562 187.25 379.042 187.25ZM401.958 187.25C399.437 187.25 397.398 189.313 397.398 191.833C397.398 194.354 399.437 196.417 401.958 196.417C404.479 196.417 406.542 194.354 406.542 191.833C406.542 189.313 404.479 187.25 401.958 187.25ZM379.431 179.802L379.5 179.527L381.562 175.792H398.635C400.354 175.792 401.867 174.852 402.646 173.431L411.492 157.367L407.504 155.167H407.481L404.96 159.75L398.635 171.208H382.548L382.25 170.59L377.117 159.75L374.94 155.167L372.785 150.583H365.292V155.167H369.875L378.125 172.56L375.031 178.175C374.665 178.817 374.458 179.573 374.458 180.375C374.458 182.896 376.521 184.958 379.042 184.958H406.542V180.375H380.004C379.706 180.375 379.431 180.123 379.431 179.802Z" fill="black"/>
</svg>
